<svg width="24" height="22" viewBox="0 0 24 22" fill="none" xmlns="http://www.w3.org/2000/svg">
<path id="fb icon" d="M21.4286 0H2.57143C1.88944 0 1.23539 0.239916 0.753154 0.666969C0.270918 1.09402 0 1.67323 0 2.27717L0 18.9764C0 19.5804 0.270918 20.1596 0.753154 20.5867C1.23539 21.0137 1.88944 21.2536 2.57143 21.2536H9.92411V14.0279H6.54911V10.6268H9.92411V8.03463C9.92411 5.08616 11.9063 3.45751 14.9421 3.45751C16.3961 3.45751 17.9164 3.68712 17.9164 3.68712V6.58103H16.2413C14.5907 6.58103 14.0759 7.48811 14.0759 8.41843V10.6268H17.7605L17.1713 14.0279H14.0759V21.2536H21.4286C22.1106 21.2536 22.7646 21.0137 23.2468 20.5867C23.7291 20.1596 24 19.5804 24 18.9764V2.27717C24 1.67323 23.7291 1.09402 23.2468 0.666969C22.7646 0.239916 22.1106 0 21.4286 0Z" fill="#FE5F1A"/>
</svg>
